<svg width="14" height="13" viewBox="0 0 14 13" fill="none" xmlns="http://www.w3.org/2000/svg">
<path fill-rule="evenodd" clip-rule="evenodd" d="M2.65208 2.70591C2.78119 2.28632 3.16886 2 3.60786 2H5C5.27614 2 5.5 1.77614 5.5 1.5C5.5 1.22386 5.27614 1 5 1H3.60786C2.72985 1 1.95451 1.57264 1.6963 2.41183L0.088442 7.63738C0.0298102 7.82793 0 8.02618 0 8.22555V11C0 12.1046 0.895431 13 2 13H12C13.1046 13 14 12.1046 14 11V8.22555C14 8.02618 13.9702 7.82793 13.9116 7.63738L12.3037 2.41183C12.0455 1.57264 11.2701 1 10.3921 1H9C8.72386 1 8.5 1.22386 8.5 1.5C8.5 1.77614 8.72386 2 9 2H10.3921C10.8311 2 11.2188 2.28632 11.3479 2.70591L12.823 7.5H10.9271C10.1695 7.5 9.47698 7.92801 9.1382 8.60557L8.96738 8.94721C8.79798 9.286 8.45172 9.5 8.07295 9.5H5.92705C5.54828 9.5 5.20202 9.286 5.03262 8.94721L4.8618 8.60557C4.52302 7.928 3.83049 7.5 3.07295 7.5H1.17698L2.65208 2.70591Z" fill="#91919E"/>
<path fill-rule="evenodd" clip-rule="evenodd" d="M7 0.5C7.27614 0.5 7.5 0.723858 7.5 1V5.29289L8.64645 4.14645C8.84171 3.95118 9.15829 3.95118 9.35355 4.14645C9.54882 4.34171 9.54882 4.65829 9.35355 4.85355L7.35355 6.85355C7.15829 7.04882 6.84171 7.04882 6.64645 6.85355L4.64645 4.85355C4.45118 4.65829 4.45118 4.34171 4.64645 4.14645C4.84171 3.95118 5.15829 3.95118 5.35355 4.14645L6.5 5.29289V1C6.5 0.723858 6.72386 0.5 7 0.5Z" fill="#91919E"/>
</svg>
