<svg width="14" height="14" viewBox="0 0 14 14" fill="none" xmlns="http://www.w3.org/2000/svg">
<path d="M7.5 7.63916C7.5 7.9153 7.27614 8.13916 7 8.13916C6.72386 8.13916 6.5 7.9153 6.5 7.63916C6.5 7.36302 6.72386 7.13916 7 7.13916C7.27614 7.13916 7.5 7.36302 7.5 7.63916Z" fill="#91919E"/>
<path d="M4 9.63916C4.27614 9.63916 4.5 9.4153 4.5 9.13916C4.5 8.86302 4.27614 8.63916 4 8.63916C3.72386 8.63916 3.5 8.86302 3.5 9.13916C3.5 9.4153 3.72386 9.63916 4 9.63916Z" fill="#91919E"/>
<path d="M4.5 10.6392C4.5 10.9153 4.27614 11.1392 4 11.1392C3.72386 11.1392 3.5 10.9153 3.5 10.6392C3.5 10.363 3.72386 10.1392 4 10.1392C4.27614 10.1392 4.5 10.363 4.5 10.6392Z" fill="#91919E"/>
<path d="M5.5 9.63916C5.77614 9.63916 6 9.4153 6 9.13916C6 8.86302 5.77614 8.63916 5.5 8.63916C5.22386 8.63916 5 8.86302 5 9.13916C5 9.4153 5.22386 9.63916 5.5 9.63916Z" fill="#91919E"/>
<path d="M6 10.6392C6 10.9153 5.77614 11.1392 5.5 11.1392C5.22386 11.1392 5 10.9153 5 10.6392C5 10.363 5.22386 10.1392 5.5 10.1392C5.77614 10.1392 6 10.363 6 10.6392Z" fill="#91919E"/>
<path d="M7 9.63916C7.27614 9.63916 7.5 9.4153 7.5 9.13916C7.5 8.86302 7.27614 8.63916 7 8.63916C6.72386 8.63916 6.5 8.86302 6.5 9.13916C6.5 9.4153 6.72386 9.63916 7 9.63916Z" fill="#91919E"/>
<path d="M7.5 10.6392C7.5 10.9153 7.27614 11.1392 7 11.1392C6.72386 11.1392 6.5 10.9153 6.5 10.6392C6.5 10.363 6.72386 10.1392 7 10.1392C7.27614 10.1392 7.5 10.363 7.5 10.6392Z" fill="#91919E"/>
<path d="M8.5 9.63916C8.77614 9.63916 9 9.4153 9 9.13916C9 8.86302 8.77614 8.63916 8.5 8.63916C8.22386 8.63916 8 8.86302 8 9.13916C8 9.4153 8.22386 9.63916 8.5 9.63916Z" fill="#91919E"/>
<path d="M9 10.6392C9 10.9153 8.77614 11.1392 8.5 11.1392C8.22386 11.1392 8 10.9153 8 10.6392C8 10.363 8.22386 10.1392 8.5 10.1392C8.77614 10.1392 9 10.363 9 10.6392Z" fill="#91919E"/>
<path d="M10 9.63916C10.2761 9.63916 10.5 9.4153 10.5 9.13916C10.5 8.86302 10.2761 8.63916 10 8.63916C9.72386 8.63916 9.5 8.86302 9.5 9.13916C9.5 9.4153 9.72386 9.63916 10 9.63916Z" fill="#91919E"/>
<path d="M9 7.63916C9 7.9153 8.77614 8.13916 8.5 8.13916C8.22386 8.13916 8 7.9153 8 7.63916C8 7.36302 8.22386 7.13916 8.5 7.13916C8.77614 7.13916 9 7.36302 9 7.63916Z" fill="#91919E"/>
<path d="M10 8.13916C10.2761 8.13916 10.5 7.9153 10.5 7.63916C10.5 7.36302 10.2761 7.13916 10 7.13916C9.72386 7.13916 9.5 7.36302 9.5 7.63916C9.5 7.9153 9.72386 8.13916 10 8.13916Z" fill="#91919E"/>
<path fill-rule="evenodd" clip-rule="evenodd" d="M3.5 0.63916C3.77614 0.63916 4 0.863018 4 1.13916V2.13916H10V1.13916C10 0.863018 10.2239 0.63916 10.5 0.63916C10.7761 0.63916 11 0.863018 11 1.13916V2.13916H11.5C12.6046 2.13916 13.5 3.03459 13.5 4.13916V11.6392C13.5 12.7437 12.6046 13.6392 11.5 13.6392H2.5C1.39543 13.6392 0.5 12.7437 0.5 11.6392V4.13916C0.5 3.03459 1.39543 2.13916 2.5 2.13916H3V1.13916C3 0.863018 3.22386 0.63916 3.5 0.63916ZM12.5 6.63916C12.5 6.08688 12.0523 5.63916 11.5 5.63916H2.5C1.94772 5.63916 1.5 6.08688 1.5 6.63916V11.6392C1.5 12.1914 1.94772 12.6392 2.5 12.6392H11.5C12.0523 12.6392 12.5 12.1914 12.5 11.6392V6.63916Z" fill="#91919E"/>
</svg>
