<svg width="128" height="22" viewBox="0 0 128 22" fill="none" xmlns="http://www.w3.org/2000/svg">
<path d="M18.1121 3.16411C14.8172 -0.196607 9.55006 -1.0445 5.28563 1.41757L7.92756 5.99353C9.62131 5.01565 11.6314 5.08207 13.2123 5.99303L5.28475 10.57C5.284 11.4679 5.51232 12.3779 5.99353 13.2114C6.47474 14.0449 7.14874 14.6977 7.92668 15.146L20.683 7.7811C20.7256 7.75648 20.7445 7.70674 20.7318 7.66144C20.4986 6.84867 20.1633 6.051 19.7214 5.28563C19.2653 4.49559 18.7225 3.78673 18.1121 3.16411Z" fill="url(#paint0_linear_1716_3912)"/>
<path fill-rule="evenodd" clip-rule="evenodd" d="M7.92668 15.146L3.02686 17.9749C6.32179 21.3356 11.5889 22.1835 15.8534 19.7214L27.2933 13.1166L28.4867 15.1838C28.5159 15.2343 28.5806 15.2516 28.6311 15.2224C28.6549 15.2087 28.6713 15.1872 28.679 15.1629L30.5212 8.28748C30.5279 8.26162 30.525 8.23341 30.5105 8.20844C30.4962 8.18357 30.4732 8.16675 30.4476 8.15955L23.578 6.31901C23.5515 6.31143 23.522 6.3142 23.4962 6.32911C23.4456 6.35829 23.4283 6.42292 23.4575 6.47346L24.6513 8.54062L13.2114 15.1455C11.5177 16.1233 9.50756 16.0569 7.92668 15.146Z" fill="url(#paint1_linear_1716_3912)"/>
<path d="M5.28563 1.41757C0.231162 4.33577 -1.50063 10.7989 1.41757 15.8534C1.8737 16.6434 2.41644 17.3523 3.02686 17.9749L7.92668 15.146C7.14874 14.6977 6.47474 14.0449 5.99353 13.2114C5.51232 12.3779 5.284 11.4679 5.28475 10.57C5.28628 8.74544 6.23381 6.97142 7.92756 5.99353L5.28563 1.41757Z" fill="url(#paint2_linear_1716_3912)"/>
<path d="M43.9822 13.6547C45.1213 13.6547 46.039 13.5345 46.7351 13.294C47.4439 13.0535 48.0008 12.6548 48.4058 12.0979H51.6333C51.2662 13.5028 50.4246 14.5534 49.1082 15.2495C47.8046 15.9456 46.0959 16.2937 43.9822 16.2937C41.7166 16.2937 39.8877 15.819 38.4955 14.8698C37.1159 13.9205 36.4261 12.4713 36.4261 10.5221C36.4261 8.54768 37.1159 7.09214 38.4955 6.15554C39.8877 5.20628 41.7799 4.73164 44.1721 4.73164C46.5262 4.73164 48.3868 5.23159 49.7537 6.23148C51.1333 7.21871 51.8231 9.00382 51.8231 11.3833H39.7485C40.0649 12.9654 41.4762 13.6547 43.9822 13.6547ZM44.1531 7.19973C42.9507 7.19973 41.9951 7.35161 41.2863 7.65537C40.5775 7.94648 40.1029 8.36366 39.8624 9.11042H48.3488C48.0957 8.36366 47.6084 7.94648 46.887 7.65537C46.1782 7.35161 45.2669 7.19973 44.1531 7.19973Z" fill="#020218"/>
<path d="M56.5975 10.5221L50.2116 4.9215H54.8835L58.7808 8.52187L62.6781 4.9215H67.35L61.0469 10.5221L67.35 16.1038H62.6781L58.7808 12.6052L54.8835 16.1038H50.2116L56.5975 10.5221Z" fill="#020218"/>
<path d="M102.436 4.62989C105.612 4.62989 107.322 6.43399 107.36 9.83868L107.322 16.1038H103.973V11.1487C103.973 10.288 103.904 9.60453 103.765 9.09825C103.625 8.59198 103.36 8.20595 102.967 7.94015C102.575 7.67436 102.005 7.54146 101.259 7.54146C100.448 7.54146 99.6511 7.706 98.8664 8.03508C98.0817 8.36416 97.5253 8.76918 96.9937 9.25014C97.0063 9.3767 97.0127 9.57289 97.0127 9.83868L96.9747 16.1038H93.6264V11.1487C93.6264 10.288 93.5568 9.60453 93.4176 9.09825C93.2784 8.59198 93.0126 8.20595 92.6202 7.94015C92.2279 7.67436 91.6583 7.54146 90.9116 7.54146C90.0256 7.54146 89.1586 7.73765 88.3106 8.13001C87.4626 8.50971 86.8872 8.97169 86.3809 9.51593V16.1038H83.0327V4.9215H86.3809V6.74408C88.0643 5.40246 89.899 4.62989 92.0886 4.62989C94.1011 4.62989 95.5824 5.41511 96.3292 6.78205C98.1518 5.41511 100.119 4.62989 102.436 4.62989Z" fill="#020218"/>
<path d="M111.755 4.718L111.754 16.1038H108.304V4.718H111.755Z" fill="#020218"/>
<path d="M120.254 16.2937C117.824 16.2937 115.925 15.8254 114.558 14.8888C113.192 13.9522 112.508 12.4966 112.508 10.5221C112.508 8.53502 113.192 7.07316 114.558 6.13655C115.925 5.19995 117.824 4.73164 120.254 4.73164C122.671 4.73164 124.564 5.20628 125.931 6.15554C127.31 7.09214 128 8.54768 128 10.5221C128 12.4966 127.31 13.9522 125.931 14.8888C124.564 15.8254 122.671 16.2937 120.254 16.2937ZM120.254 13.6805C121.811 13.6805 122.842 13.351 123.551 12.8953C124.272 12.4397 124.633 11.6486 124.633 10.5221C124.633 9.38303 124.272 8.58565 123.551 8.13001C122.842 7.67436 121.811 7.34479 120.254 7.34479C118.697 7.34479 117.66 7.67436 116.938 8.13001C116.217 8.58565 115.856 9.38303 115.856 10.5221C115.856 11.6486 116.217 12.4397 116.938 12.8953C117.66 13.351 118.697 13.6805 120.254 13.6805Z" fill="#020218"/>
<path d="M110.029 3.74C109.488 3.74 109.065 3.63569 108.761 3.42706C108.456 3.21843 108.304 2.89421 108.304 2.45439C108.304 2.01176 108.456 1.68613 108.761 1.4775C109.065 1.26887 109.488 1.16455 110.029 1.16455C110.568 1.16455 110.989 1.27028 111.294 1.48172C111.601 1.69035 111.755 2.01458 111.755 2.45439C111.755 2.89421 111.601 3.21843 111.294 3.42706C110.989 3.63569 110.568 3.74 110.029 3.74Z" fill="#020218"/>
<path fill-rule="evenodd" clip-rule="evenodd" d="M80.0851 6.06061C78.8574 5.17463 77.0284 4.73164 74.5983 4.73164C72.4087 4.73164 70.1241 5.11768 67.7446 5.88975V8.52187C70.1626 7.54146 72.5859 7.34479 74.4464 7.34479C77.2816 7.34479 78.6991 8.21228 78.6991 9.74376C77.1297 9.21217 75.4147 8.94637 73.5541 8.94637C71.567 8.94637 69.9469 9.24381 68.6939 9.83868C67.4409 10.4336 66.8144 11.4081 66.8144 12.7624C66.8144 15.1166 68.6121 16.1038 72.0042 16.1038C74.3963 16.1038 78.6991 16.1038 78.6991 16.1038H81.9646V10.4652C81.952 8.41479 81.3254 6.94659 80.0851 6.06061ZM73.9528 11.1745C75.6742 11.1745 77.2563 11.4023 78.6991 11.8579V13.9015H72.8327C72.3652 13.9015 71.7574 13.8762 71.3777 13.8256C70.9979 13.775 70.7005 13.661 70.4853 13.4839C70.2702 13.294 70.1626 13.0092 70.1626 12.6295C70.1626 12.0853 70.4917 11.7947 71.1498 11.5542C71.8206 11.301 72.6871 11.1745 73.9528 11.1745Z" fill="#020218"/>
<defs>
<linearGradient id="paint0_linear_1716_3912" x1="7.76728" y1="15.9309" x2="10.504" y2="6.73127" gradientUnits="userSpaceOnUse">
<stop offset="0.0729167" stop-color="#55DB9C"/>
<stop offset="1" stop-color="#0054FF"/>
</linearGradient>
<linearGradient id="paint1_linear_1716_3912" x1="7.84654" y1="15.5346" x2="29.4311" y2="13.989" gradientUnits="userSpaceOnUse">
<stop stop-color="#F074FC"/>
<stop offset="0.82" stop-color="#FE641E"/>
</linearGradient>
<linearGradient id="paint2_linear_1716_3912" x1="7.88553" y1="16.3307" x2="7.93641" y2="5.74881" gradientUnits="userSpaceOnUse">
<stop offset="0.126007" stop-color="#F074FC"/>
<stop offset="1" stop-color="#0054FF"/>
</linearGradient>
</defs>
</svg>
