<svg width="14" height="14" viewBox="0 0 14 14" fill="none" xmlns="http://www.w3.org/2000/svg">
<path d="M2.27538 0.911314C3.65847 0.731747 5.06864 0.63916 6.50019 0.63916C7.9316 0.63916 9.34163 0.731728 10.7246 0.91126C12.0061 1.07762 12.9189 2.15207 12.9949 3.39579C12.7777 3.32325 12.5475 3.27514 12.3067 3.25515C11.381 3.17832 10.4449 3.13916 9.49998 3.13916C8.55509 3.13916 7.61901 3.17832 6.69332 3.25515C5.12113 3.38564 4 4.7156 4 6.2113V9.06829C4 10.1954 4.63645 11.2276 5.62187 11.7244L3.85355 13.4927C3.71055 13.6357 3.4955 13.6785 3.30866 13.6011C3.12182 13.5237 3 13.3414 3 13.1392V10.4528C2.75766 10.4269 2.51611 10.3983 2.27539 10.367C0.936441 10.1932 0 9.02803 0 7.71425V3.56408C0 2.25031 0.936438 1.08515 2.27538 0.911314Z" fill="#91919E"/>
<path d="M9.49998 4.13916C8.58273 4.13916 7.67425 4.17717 6.77603 4.25172C5.74984 4.33689 5 5.2077 5 6.2113V9.06829C5 10.0734 5.75198 10.9447 6.77947 11.0286C7.60871 11.0963 8.44669 11.1333 9.29225 11.1385L11.1464 12.9927C11.2894 13.1357 11.5045 13.1785 11.6913 13.1011C11.8782 13.0237 12 12.8414 12 12.6392V11.0459C12.0736 11.0404 12.1471 11.0346 12.2205 11.0286C13.248 10.9448 14 10.0735 14 9.06835V6.21131C14 5.20771 13.2502 4.3369 12.224 4.25173C11.3257 4.17717 10.4172 4.13916 9.49998 4.13916Z" fill="#91919E"/>
</svg>
