<svg width="12" height="15" viewBox="0 0 12 15" fill="none" xmlns="http://www.w3.org/2000/svg">
<path fill-rule="evenodd" clip-rule="evenodd" d="M4 0.13916H1.75C1.05964 0.13916 0.5 0.698804 0.5 1.38916V12.8892C0.5 13.5795 1.05964 14.1392 1.75 14.1392H10.25C10.9404 14.1392 11.5 13.5795 11.5 12.8892V7.63916C11.5 6.25845 10.3807 5.13916 9 5.13916H7.75C7.05964 5.13916 6.5 4.57952 6.5 3.88916V2.63916C6.5 1.25845 5.38071 0.13916 4 0.13916ZM8.40687 7.42978C8.56737 7.20507 8.51533 6.8928 8.29062 6.73229C8.06591 6.57179 7.75364 6.62383 7.59313 6.84854L5.4362 9.86825L4.35355 8.78561C4.15829 8.59034 3.84171 8.59034 3.64645 8.78561C3.45118 8.98087 3.45118 9.29745 3.64645 9.49271L5.14645 10.9927C5.25037 11.0966 5.39476 11.1496 5.54124 11.1375C5.68772 11.1253 5.82144 11.0494 5.90687 10.9298L8.40687 7.42978Z" fill="#91919E"/>
<path d="M6.64746 0.349763C7.17864 0.963479 7.5 1.76379 7.5 2.63916V3.88916C7.5 4.02723 7.61193 4.13916 7.75 4.13916H9C9.87537 4.13916 10.6757 4.46052 11.2894 4.9917C10.6975 2.72574 8.91342 0.941676 6.64746 0.349763Z" fill="#91919E"/>
</svg>
