<svg width="160" height="134" viewBox="0 0 160 134" fill="none" xmlns="http://www.w3.org/2000/svg">
<path d="M12.7573 80.242V24.4542C12.7573 11.2298 23.5388 0.47168 36.7904 0.47168H60.9967C74.2483 0.47168 85.0298 11.2298 85.0298 24.4542V80.2439C85.0298 84.1408 81.8649 87.298 77.9622 87.298H19.8269C15.9223 87.298 12.7593 84.1408 12.7593 80.2439L12.7573 80.242ZM70.8926 24.4542C70.8926 19.0079 66.4527 14.5797 60.9967 14.5797H36.7904C31.3345 14.5797 26.8945 19.0099 26.8945 24.4542V73.1899H70.8926V24.4542Z" fill="#D5D5E3"/>
<path d="M77.9622 87.7262H19.8269C15.6926 87.7262 12.3291 84.3685 12.3291 80.242V24.4542C12.3272 10.9924 23.3014 0.0415039 36.7904 0.0415039H60.9967C74.4858 0.0415039 85.46 10.9924 85.46 24.4542V80.2439C85.46 84.3705 82.0965 87.7281 77.9622 87.7281V87.7262ZM36.7904 0.901845C23.7763 0.901845 13.1875 11.4673 13.1875 24.4542V80.2439C13.1875 83.8955 16.1656 86.8678 19.8269 86.8678H77.9622C81.6235 86.8678 84.5997 83.8975 84.5997 80.2439V24.4542C84.5997 11.4673 74.0108 0.901845 60.9967 0.901845H36.7904ZM70.8926 73.6201H26.8946C26.6571 73.6201 26.4644 73.4274 26.4644 73.1899V24.4542C26.4644 18.7724 31.097 14.1495 36.7904 14.1495H60.9967C66.6902 14.1495 71.3228 18.7724 71.3228 24.4542V73.1899C71.3228 73.4274 71.1301 73.6201 70.8926 73.6201ZM27.3247 72.7598H70.4624V24.4542C70.4624 19.2454 66.2152 15.0099 60.9967 15.0099H36.7904C31.5719 15.0099 27.3247 19.2473 27.3247 24.4542V72.7598Z" fill="#020218"/>
<path d="M97.3606 60.0415H0.430176V86.9534C0.430176 97.1627 4.09928 107.039 10.7757 114.763C20.693 126.235 33.9348 133.246 48.4886 133.246C64.2628 133.246 78.4934 125.009 88.619 111.781C94.3105 104.347 97.3606 95.3038 97.3606 85.9413V60.0415Z" fill="#D5D5E3"/>
<path d="M48.4886 133.677C34.3436 133.677 20.835 127.059 10.4487 115.045C3.71192 107.247 0 97.2697 0 86.9515V60.0395C0 59.8021 0.192701 59.6094 0.43017 59.6094H97.3606C97.5981 59.6094 97.7908 59.8021 97.7908 60.0395V85.9393C97.7908 95.4673 94.7367 104.493 88.9596 112.04C78.2793 125.99 63.9066 133.675 48.4866 133.675L48.4886 133.677ZM0.860341 60.4717V86.9534C0.860341 97.0653 4.4983 106.842 11.1007 114.482C21.3197 126.305 34.5985 132.816 48.4886 132.816C63.6341 132.816 77.7635 125.252 88.2784 111.52C93.9387 104.125 96.9324 95.2804 96.9324 85.9412V60.4717H0.860341Z" fill="#020218"/>
<path d="M39.9048 107.078L44.224 89.4332C43.0717 88.7286 42.116 87.7301 41.4717 86.5388C40.8916 85.4722 40.5588 84.242 40.5588 82.9379C40.5588 79.8196 42.4352 77.1432 45.1233 75.9656C46.0654 75.5529 47.1009 75.3252 48.1948 75.3252C49.2887 75.3252 50.3242 75.5529 51.2624 75.9656C53.9505 77.1393 55.8269 79.8196 55.8269 82.9379C55.8269 84.242 55.4999 85.4663 54.914 86.5388C54.2736 87.7301 53.3179 88.7286 52.1656 89.4332L56.4848 107.078H39.9067H39.9048Z" fill="#020218"/>
<path d="M112.284 75.9731V86.5464H41.3992C40.8192 85.4797 40.4863 84.2495 40.4863 82.9454C40.4863 79.8272 42.3627 77.1508 45.0508 75.9731H112.284Z" fill="#4ADA85"/>
<path d="M134.201 57.4624C122.873 57.4624 113.401 65.3826 111.067 75.9733C110.705 77.6142 110.513 79.3174 110.513 81.0653C110.513 82.9495 110.735 84.785 111.157 86.5446C113.637 96.9388 123.015 104.668 134.203 104.668C147.285 104.668 157.894 94.1008 157.894 81.0653C157.894 68.0298 147.285 57.4624 134.201 57.4624ZM145.275 87.1539C141.9 87.1539 139.165 84.4288 139.165 81.0653C139.165 77.7018 141.9 74.9729 145.275 74.9729C148.65 74.9729 151.389 77.6979 151.389 81.0653C151.389 84.4327 148.654 87.1539 145.275 87.1539Z" fill="#4ADA85"/>
<path d="M134.622 99.8118C134.135 99.8118 133.643 99.7923 133.16 99.7553C132.923 99.7378 132.745 99.5295 132.763 99.294C132.78 99.0565 132.991 98.8794 133.224 98.8989C133.686 98.9339 134.155 98.9514 134.62 98.9514C138.62 98.9514 142.406 97.6687 145.569 95.2434C145.758 95.0994 146.028 95.1344 146.172 95.3232C146.316 95.512 146.281 95.7826 146.092 95.9266C142.779 98.4687 138.813 99.8137 134.622 99.8137V99.8118Z" fill="#020218"/>
<path d="M124.787 96.9736C124.709 96.9736 124.629 96.9522 124.557 96.9075C120.035 94.05 116.94 89.4077 116.064 84.1697C116.026 83.9362 116.183 83.7143 116.419 83.6753C116.654 83.6364 116.874 83.7941 116.913 84.0276C117.748 89.0242 120.703 93.4525 125.016 96.1795C125.217 96.306 125.277 96.5727 125.151 96.7731C125.069 96.9036 124.929 96.9736 124.787 96.9736Z" fill="#020218"/>
<path d="M116.611 77.803C116.582 77.803 116.553 77.7991 116.524 77.7933C116.29 77.7446 116.14 77.5188 116.189 77.2853C117.97 68.6118 125.723 62.3169 134.62 62.3169C134.857 62.3169 135.05 62.5096 135.05 62.7471C135.05 62.9845 134.857 63.1772 134.62 63.1772C126.128 63.1772 118.731 69.184 117.032 77.4585C116.991 77.6629 116.81 77.803 116.611 77.803Z" fill="#020218"/>
<path d="M101.223 83.4399H57.6294C57.3919 83.4399 57.1992 83.2472 57.1992 83.0098C57.1992 82.7723 57.3919 82.5796 57.6294 82.5796H101.223C101.46 82.5796 101.653 82.7723 101.653 83.0098C101.653 83.2472 101.46 83.4399 101.223 83.4399Z" fill="#020218"/>
</svg>
