<svg width="16" height="16" viewBox="0 0 16 16" fill="none" xmlns="http://www.w3.org/2000/svg">
<path d="M10 4.5C9.72386 4.5 9.5 4.72386 9.5 5V12C9.5 12.1326 9.55268 12.2598 9.64645 12.3536C9.74022 12.4473 9.86739 12.5 10 12.5H10.5C10.7761 12.5 11 12.2761 11 12V5C11 4.72386 10.7761 4.5 10.5 4.5H10Z" fill="#91919E"/>
<path d="M13.5 4.5C13.2239 4.5 13 4.72386 13 5V12C13 12.2761 13.2239 12.5 13.5 12.5H14C14.2761 12.5 14.5 12.2761 14.5 12L14.5 5C14.5 4.86739 14.4473 4.74021 14.3536 4.64645C14.2598 4.55268 14.1326 4.5 14 4.5H13.5Z" fill="#91919E"/>
<path d="M3.37017 4.70707C2.53685 4.23089 1.5 4.8326 1.5 5.79237V11.2076C1.5 12.1674 2.53685 12.7691 3.37017 12.2929L8.1085 9.58529C8.94827 9.10543 8.94827 7.89455 8.1085 7.41469L3.37017 4.70707Z" fill="#91919E"/>
</svg>
